<svg xmlns="http://www.w3.org/2000/svg" viewBox="0 0 164.53288 34.31872">
  <g id="Layer_2" data-name="Layer 2">
    <g id="Layer_1-2" data-name="Layer 1">
      <g>
        <text transform="translate(25.57293 27.9819)" style="font-size: 24px;font-family: KansasNew-Black, KansasNew;font-weight: 800">Cardan<tspan x="95.37549" y="0" style="letter-spacing: -0.023030598958333332em">o</tspan><tspan x="110.61475" y="0" style="letter-spacing: -0.010986328125em">B</tspan><tspan x="128.73486" y="0" style="letter-spacing: 0.000040690104166666664em">I</tspan></text>
        <g>
          <path d="M25,16.39308V28.36569H20.06942a19.96456,19.96456,0,0,1-11.45866-3.592c.27232.01343.54657.01919.82081.01919A18.60445,18.60445,0,0,0,25,16.39308Z" style="fill: gold"/>
          <path d="M25,11.77125v4.62183A18.60445,18.60445,0,0,1,9.43157,24.79289c-.27424,0-.54849-.00576-.82081-.01919A20.03809,20.03809,0,0,1,0,8.29626,8.29591,8.29591,0,0,1,8.29817,0h4.93058A11.77107,11.77107,0,0,1,25,11.77125Z" style="fill: #0057b8"/>
          <path d="M5.44906,6.19578h.497a4.67111,4.67111,0,0,1,4.67111,4.67111v8.284a0,0,0,0,1,0,0h-.497A7.96385,7.96385,0,0,1,2.15631,11.187V9.48853A3.29275,3.29275,0,0,1,5.44906,6.19578Z" style="fill: #fff"/>
          <path d="M22.9251,6.19578h.497a0,0,0,0,1,0,0v8.284A4.67111,4.67111,0,0,1,18.751,19.15086h-.497a3.29275,3.29275,0,0,1-3.29275-3.29275V14.15963A7.96385,7.96385,0,0,1,22.9251,6.19578Z" transform="translate(38.38338 25.34664) rotate(-180)" style="fill: #fff"/>
          <g id="Layer_2-2" data-name="Layer 2">
            <g id="Layer_1-2-2" data-name="Layer 1-2">
              <path d="M11.00763,4.57434a.53884.53884,0,0,0,.50771.56744h.032a.53865.53865,0,1,0-.53971-.56744Z" style="fill: #fff"/>
              <path d="M8.99812,4.43568a.17412.17412,0,1,0,.16426.18346.1728.1728,0,0,0-.16426-.18346Z" style="fill: #fff"/>
              <path d="M10.9735,1.447a.17459.17459,0,1,0-.15786-.31145.17459.17459,0,0,0,.15786.31145Z" style="fill: #fff"/>
              <path d="M11.51961,2.40057a.26856.26856,0,1,0-.36052-.11946A.26913.26913,0,0,0,11.51961,2.40057Z" style="fill: #fff"/>
              <path d="M9.68076,3.05547a.22188.22188,0,1,0-.064-.30718h0A.22082.22082,0,0,0,9.68076,3.05547Z" style="fill: #fff"/>
              <path d="M10.00714,4.33968a.2692.2692,0,1,0,.25386.28372h0A.26935.26935,0,0,0,10.00714,4.33968Z" style="fill: #fff"/>
              <path d="M9.71062,6.14653a.22229.22229,0,1,0,.29866.09813h0a.22314.22314,0,0,0-.29866-.09813Z" style="fill: #fff"/>
              <path d="M10.75591,3.78291a.316.316,0,1,0-.09173-.43732.314.314,0,0,0,.09173.43732Z" style="fill: #fff"/>
              <path d="M14.07309,2.37924a.26951.26951,0,1,0-.07679-.37332h0a.26657.26657,0,0,0,.07679.37332Z" style="fill: #fff"/>
              <path d="M14.62347,1.42994a.17426.17426,0,1,0-.0512-.24318.17967.17967,0,0,0,.0512.24318Z" style="fill: #fff"/>
              <path d="M14.11362,4.06023a.5384.5384,0,0,0-.05973,1.07515h.02987a.538.538,0,0,0,.02986-1.07515Z" style="fill: #fff"/>
              <path d="M11.69667,3.74451a.539.539,0,1,0,.23892-.7253.53981.53981,0,0,0-.23892.7253Z" style="fill: #fff"/>
              <path d="M15.91834,3.05547a.22182.22182,0,1,0-.30078-.09813.22558.22558,0,0,0,.30078.09813Z" style="fill: #fff"/>
              <path d="M14.55307,3.22613a.31626.31626,0,1,0,.42452.1408A.31636.31636,0,0,0,14.55307,3.22613Z" style="fill: #fff"/>
              <path d="M12.79315,1.34888a.22222.22222,0,1,0-.20906-.23679.22481.22481,0,0,0,.20906.23679Z" style="fill: #fff"/>
              <path d="M12.791,2.74189a.31618.31618,0,1,0-.29866-.33279.31412.31412,0,0,0,.29866.33279Z" style="fill: #fff"/>
              <path d="M11.07589,5.97587a.31625.31625,0,1,0-.42451-.14079A.31634.31634,0,0,0,11.07589,5.97587Z" style="fill: #fff"/>
              <path d="M12.99581,3.2048a.53851.53851,0,1,0,.45011-.24319A.53709.53709,0,0,0,12.99581,3.2048Z" style="fill: #fff"/>
              <path d="M13.9323,5.4575a.53854.53854,0,1,0-.23892.72317h0a.536.536,0,0,0,.24105-.71891Z" style="fill: #fff"/>
              <path d="M14.87306,5.4191a.316.316,0,1,0,.09173.43731.314.314,0,0,0-.09173-.43731Z" style="fill: #fff"/>
              <path d="M15.90554,4.6106a.2692.2692,0,1,0-.28372.25386h0A.2708.2708,0,0,0,15.90554,4.6106Z" style="fill: #fff"/>
              <path d="M16.65,4.41861a.17412.17412,0,1,0,.16426.18346A.17553.17553,0,0,0,16.65,4.41861Z" style="fill: #fff"/>
              <path d="M15.94821,6.14653a.22188.22188,0,1,0,.064.30719.22083.22083,0,0,0-.064-.30719Z" style="fill: #fff"/>
              <path d="M11.00336,7.77206a.17395.17395,0,1,0,.04907.24106h0A.17128.17128,0,0,0,11.00336,7.77206Z" style="fill: #fff"/>
              <path d="M14.65547,7.755a.17459.17459,0,1,0,.15786.31145.17459.17459,0,0,0-.15786-.31145Z" style="fill: #fff"/>
              <path d="M12.63316,5.99721a.53931.53931,0,1,0-.74664.15572.54105.54105,0,0,0,.74664-.15572Z" style="fill: #fff"/>
              <path d="M11.55587,6.82277a.2695.2695,0,1,0,.0768.37332h0A.267.267,0,0,0,11.55587,6.82277Z" style="fill: #fff"/>
              <path d="M12.81235,7.85312a.22223.22223,0,1,0,.20906.23679.22483.22483,0,0,0-.20906-.23679Z" style="fill: #fff"/>
              <path d="M12.81448,6.46012a.31618.31618,0,1,0,.29866.33279.31411.31411,0,0,0-.29866-.33279Z" style="fill: #fff"/>
              <path d="M14.10936,6.80144a.26952.26952,0,1,0,.36478.11946.26954.26954,0,0,0-.36478-.11946Z" style="fill: #fff"/>
            </g>
          </g>
        </g>
      </g>
    </g>
  </g>
</svg>
