<svg id="visual" viewBox="0 0 960 540" width="960" height="540" xmlns="http://www.w3.org/2000/svg" xmlns:xlink="http://www.w3.org/1999/xlink" version="1.1"><rect x="0" y="0" width="960" height="540" fill="#001220"></rect><path d="M0 47L10 50.2C20 53.3 40 59.7 60 62.5C80 65.3 100 64.7 120 67.2C140 69.7 160 75.3 180 76C200 76.7 220 72.3 240 68.3C260 64.3 280 60.7 300 61.8C320 63 340 69 360 70.5C380 72 400 69 420 70.5C440 72 460 78 480 75.3C500 72.7 520 61.3 540 58C560 54.7 580 59.3 600 62.7C620 66 640 68 660 65.2C680 62.3 700 54.7 720 56C740 57.3 760 67.7 780 73.8C800 80 820 82 840 81.5C860 81 880 78 900 76.5C920 75 940 75 950 75L960 75L960 0L950 0C940 0 920 0 900 0C880 0 860 0 840 0C820 0 800 0 780 0C760 0 740 0 720 0C700 0 680 0 660 0C640 0 620 0 600 0C580 0 560 0 540 0C520 0 500 0 480 0C460 0 440 0 420 0C400 0 380 0 360 0C340 0 320 0 300 0C280 0 260 0 240 0C220 0 200 0 180 0C160 0 140 0 120 0C100 0 80 0 60 0C40 0 20 0 10 0L0 0Z" fill="#ffd700"></path><path d="M0 42L10 42C20 42 40 42 60 37.8C80 33.7 100 25.3 120 24.5C140 23.7 160 30.3 180 34.7C200 39 220 41 240 41.5C260 42 280 41 300 39C320 37 340 34 360 31.8C380 29.7 400 28.3 420 28.8C440 29.3 460 31.7 480 31.8C500 32 520 30 540 30.8C560 31.7 580 35.3 600 36.3C620 37.3 640 35.7 660 32.7C680 29.7 700 25.3 720 22.8C740 20.3 760 19.7 780 22.5C800 25.3 820 31.7 840 36.3C860 41 880 44 900 45.8C920 47.7 940 48.3 950 48.7L960 49L960 0L950 0C940 0 920 0 900 0C880 0 860 0 840 0C820 0 800 0 780 0C760 0 740 0 720 0C700 0 680 0 660 0C640 0 620 0 600 0C580 0 560 0 540 0C520 0 500 0 480 0C460 0 440 0 420 0C400 0 380 0 360 0C340 0 320 0 300 0C280 0 260 0 240 0C220 0 200 0 180 0C160 0 140 0 120 0C100 0 80 0 60 0C40 0 20 0 10 0L0 0Z" fill="#0057b8"></path></svg>