<svg fill="#000000" xmlns="http://www.w3.org/2000/svg"  viewBox="0 0 50 50" width="50px" height="50px"><path d="M25 10A2 2 0 1 0 25 14 2 2 0 1 0 25 10zM13.742 16.5A2 2 0 1 0 13.742 20.5 2 2 0 1 0 13.742 16.5zM13.742 29.5A2 2 0 1 0 13.742 33.5 2 2 0 1 0 13.742 29.5zM25 36A2 2 0 1 0 25 40 2 2 0 1 0 25 36zM36.258 29.5A2 2 0 1 0 36.258 33.5 2 2 0 1 0 36.258 29.5zM36.258 16.5A2 2 0 1 0 36.258 20.5 2 2 0 1 0 36.258 16.5zM8.5 23.5A1.5 1.5 0 1 0 8.5 26.5 1.5 1.5 0 1 0 8.5 23.5zM16.75 37.789A1.5 1.5 0 1 0 16.75 40.789 1.5 1.5 0 1 0 16.75 37.789zM33.25 37.789A1.5 1.5 0 1 0 33.25 40.789 1.5 1.5 0 1 0 33.25 37.789zM41.5 23.5A1.5 1.5 0 1 0 41.5 26.5 1.5 1.5 0 1 0 41.5 23.5zM33.25 9.211A1.5 1.5 0 1 0 33.25 12.211 1.5 1.5 0 1 0 33.25 9.211zM16.75 9.211A1.5 1.5 0 1 0 16.75 12.211 1.5 1.5 0 1 0 16.75 9.211zM2 24A1 1 0 1 0 2 26 1 1 0 1 0 2 24zM13.5 43.919A1 1 0 1 0 13.5 45.919 1 1 0 1 0 13.5 43.919zM36.5 43.919A1 1 0 1 0 36.5 45.919 1 1 0 1 0 36.5 43.919zM48 24A1 1 0 1 0 48 26 1 1 0 1 0 48 24zM36.5 4.081A1 1 0 1 0 36.5 6.081 1 1 0 1 0 36.5 4.081zM13.5 4.081A1 1 0 1 0 13.5 6.081 1 1 0 1 0 13.5 4.081zM25 3A1.5 1.5 0 1 0 25 6 1.5 1.5 0 1 0 25 3zM7.246 13.25A1.5 1.5 0 1 0 7.246 16.25 1.5 1.5 0 1 0 7.246 13.25zM7.246 33.75A1.5 1.5 0 1 0 7.246 36.75 1.5 1.5 0 1 0 7.246 33.75zM25 44A1.5 1.5 0 1 0 25 47 1.5 1.5 0 1 0 25 44zM42.754 33.75A1.5 1.5 0 1 0 42.754 36.75 1.5 1.5 0 1 0 42.754 33.75zM42.754 13.25A1.5 1.5 0 1 0 42.754 16.25 1.5 1.5 0 1 0 42.754 13.25zM17 22A3 3 0 1 0 17 28 3 3 0 1 0 17 22zM33 22A3 3 0 1 0 33 28 3 3 0 1 0 33 22zM21 15A3 3 0 1 0 21 21 3 3 0 1 0 21 15zM29 15A3 3 0 1 0 29 21 3 3 0 1 0 29 15zM21 29A3 3 0 1 0 21 35 3 3 0 1 0 21 29zM29 29A3 3 0 1 0 29 35 3 3 0 1 0 29 29z"/></svg>